<svg xmlns="http://www.w3.org/2000/svg" xml:space="preserve" width="64" height="64"><path d="M32 0C14.327 0 0 14.327 0 32c0 17.673 14.327 32 32 32 17.673 0 32-14.327 32-32C64 14.327 49.673 0 32 0Z" style="fill:#88c5cc;stroke-width:.125"/><path d="M47 44c0 1.65-1.35 3-3 3H20c-1.65 0-3-1.35-3-3V20c0-1.65 1.35-3 3-3h24c1.65 0 3 1.35 3 3z" style="fill:#2d4452;stroke-width:.125"/><path d="M44 17h-2c1.65 0 3 1.35 3 3v24c0 1.65-1.35 3-3 3h2c1.65 0 3-1.35 3-3V20c0-1.65-1.35-3-3-3z" style="fill:#233540;stroke-width:.125"/><circle cx="44" cy="20" r=".5" style="fill:#c2d5d8;stroke-width:.125"/><circle cx="20" cy="20" r=".5" style="fill:#c2d5d8;stroke-width:.125"/><circle cx="44" cy="44" r=".5" style="fill:#c2d5d8;stroke-width:.125"/><circle cx="20" cy="44" r=".5" style="fill:#c2d5d8;stroke-width:.125"/><path d="M23 14.5a.5.5 0 0 1-.5-.5V7.5a.5.5 0 1 1 1 0V14a.5.5 0 0 1-.5.5zm2.5 0a.5.5 0 0 1-.5-.5V7.5a.5.5 0 1 1 1 0V14a.5.5 0 0 1-.5.5zm3 0a.5.5 0 0 1-.5-.5V7.5a.5.5 0 1 1 1 0V14a.5.5 0 0 1-.5.5zm2.5 0a.5.5 0 0 1-.5-.5V7.5a.5.5 0 1 1 1 0V14a.5.5 0 0 1-.5.5zm2.5 0a.5.5 0 0 1-.5-.5V7.5a.5.5 0 1 1 1 0V14a.5.5 0 0 1-.5.5zm2.5 0a.5.5 0 0 1-.5-.5V7.5a.5.5 0 1 1 1 0V14a.5.5 0 0 1-.5.5zm3 0a.5.5 0 0 1-.5-.5V7.5a.5.5 0 1 1 1 0V14a.5.5 0 0 1-.5.5zm2.5 0a.5.5 0 0 1-.5-.5V7.5a.5.5 0 1 1 1 0V14a.5.5 0 0 1-.5.5zM23 57a.5.5 0 0 1-.5-.5V50a.5.5 0 1 1 1 0v6.5a.5.5 0 0 1-.5.5zm2.5 0a.5.5 0 0 1-.5-.5V50a.5.5 0 1 1 1 0v6.5a.5.5 0 0 1-.5.5zm3 0a.5.5 0 0 1-.5-.5V50a.5.5 0 1 1 1 0v6.5a.5.5 0 0 1-.5.5zm2.5 0a.5.5 0 0 1-.5-.5V50a.5.5 0 1 1 1 0v6.5a.5.5 0 0 1-.5.5zm2.5 0a.5.5 0 0 1-.5-.5V50a.5.5 0 1 1 1 0v6.5a.5.5 0 0 1-.5.5zm2.5 0a.5.5 0 0 1-.5-.5V50a.5.5 0 1 1 1 0v6.5a.5.5 0 0 1-.5.5zm3 0a.5.5 0 0 1-.5-.5V50a.5.5 0 1 1 1 0v6.5a.5.5 0 0 1-.5.5zm2.5 0a.5.5 0 0 1-.5-.5V50a.5.5 0 1 1 1 0v6.5a.5.5 0 0 1-.5.5ZM14 42H7.5a.5.5 0 1 1 0-1H14a.5.5 0 1 1 0 1zm0-2.5H7.5a.5.5 0 1 1 0-1H14a.5.5 0 1 1 0 1zm0-3H7.5a.5.5 0 1 1 0-1H14a.5.5 0 1 1 0 1zm0-2.5H7.5a.5.5 0 1 1 0-1H14a.5.5 0 1 1 0 1zm0-2.5H7.5a.5.5 0 1 1 0-1H14a.5.5 0 1 1 0 1zm0-2.5H7.5a.5.5 0 1 1 0-1H14a.5.5 0 1 1 0 1zm0-3H7.5a.5.5 0 1 1 0-1H14a.5.5 0 1 1 0 1zm0-2.5H7.5a.5.5 0 1 1 0-1H14a.5.5 0 1 1 0 1zM56.5 42H50a.5.5 0 1 1 0-1h6.5a.5.5 0 1 1 0 1zm0-2.5H50a.5.5 0 1 1 0-1h6.5a.5.5 0 1 1 0 1zm0-3H50a.5.5 0 1 1 0-1h6.5a.5.5 0 1 1 0 1zm0-2.5H50a.5.5 0 1 1 0-1h6.5a.5.5 0 1 1 0 1zm0-2.5H50a.5.5 0 1 1 0-1h6.5a.5.5 0 1 1 0 1zm0-2.5H50a.5.5 0 1 1 0-1h6.5a.5.5 0 1 1 0 1zm0-3H50a.5.5 0 1 1 0-1h6.5a.5.5 0 1 1 0 1zm0-2.5H50a.5.5 0 1 1 0-1h6.5a.5.5 0 1 1 0 1z" style="fill:#f5f5f5;stroke-width:.125"/><path d="M43 17v-2c0-.55-.45-1-1-1H22c-.55 0-1 .45-1 1v2zm0 30v2c0 .55-.45 1-1 1H22c-.55 0-1-.45-1-1v-2ZM17 21h-2c-.55 0-1 .45-1 1v20c0 .55.45 1 1 1h2zm30 0h2c.55 0 1 .45 1 1v20c0 .55-.45 1-1 1h-2z" style="fill:#ccc;stroke-width:.125"/><path d="M21 16.5h22v.5H21ZM21 47h22v.5H21Zm-4.5-26h.5v22h-.5ZM47 21h.5v22H47Z" style="fill:#b3b3b3;stroke-width:.125"/></svg>