<svg xmlns="http://www.w3.org/2000/svg" width="40" height="40"><path fill="#dff0fe" d="M3.5 38.5V13.286L19.998 3.58 36.5 13.286V38.5z"/><path fill="#4788c7" d="M19.998 4.16L36 13.572V38H4V13.572L19.998 4.16m0-1.16L3 13v26h34V13L19.998 3z"/><path fill="#b6dcfe" d="M19.998 4.645L1.5 15.955v-3.059l18.498-11.31L38.5 12.896v3.059z"/><path fill="#4788c7" d="M19.998 2.172L38 13.176v1.887L19.997 4.059 2 15.063v-1.887L19.998 2.172m0-1.172L1 12.615v4.231L19.998 5.231 39 16.846v-4.231L19.998 1z"/><path fill="#b6dcfe" d="M14.5 21.5h11v17h-11z"/><path d="M25 22v16H15V22h10m1-1H14v18h12V21zm-3 9a1 1 0 1 0 0 2 1 1 0 1 0 0-2z" fill="#4788c7"/></svg>