<svg height="390pt" width="390pt" xmlns="http://www.w3.org/2000/svg" viewBox="0 0 390 390"><path d="M205.842 101.366c-81.843-6.53-150.109 61.802-143.645 143.644 4.848 64.517 57.471 117.075 121.923 121.923 81.842 7.046 150.109-61.22 143.644-143.644-4.848-64.517-57.47-116.558-121.922-121.923z" fill="#fff"/><path d="M168.993 22.238h52.04v20.04h-52.04z" fill="#ffc10d"/><path d="M206.359 344.695c-69.883 7.046-128.453-51.523-121.923-121.923 5.43-52.04 47.127-93.737 99.168-99.168 69.883-7.111 128.453 51.459 121.923 121.923-5.431 51.976-47.128 93.738-99.168 99.168z" fill="#56ace0"/><path d="M304.428 123.539l13.576-13.576c3.232-3.232 4.848-8.663 2.715-12.994-3.814-7.046-12.994-8.145-17.907-3.232l-15.192 15.192c-23.273-16.808-50.941-27.669-81.325-29.802V65.034h25.988c5.947 0 11.378-4.848 11.378-11.378V11.378C243.66 5.43 238.811 0 232.282 0h-74.667c-5.947 0-11.378 4.848-11.378 11.378v42.279c0 5.947 4.848 11.378 11.378 11.378h25.988v14.093C99.046 85.075 32.395 159.354 39.442 247.661c6.529 75.895 68.848 137.115 145.261 142.028 90.505 5.947 166.4-66.133 166.4-155.539-.065-42.861-17.908-82.425-46.675-110.611zm-98.586 243.912C124 373.98 55.733 305.649 62.198 223.289c4.848-64.517 57.471-117.075 121.923-121.923 81.842-6.529 150.109 61.802 143.644 144.162-4.849 64.452-57.471 116.492-121.923 121.923zM168.993 22.238h52.04v20.04h-52.04v-20.04zm22.174 116.493c-4.848 1.616-7.564 5.947-7.564 11.378v78.61c0 4.848 2.715 9.762 7.564 11.378 7.564 2.715 15.192-3.232 15.192-10.861v-79.644c0-7.628-7.047-13.576-15.192-10.861z" fill="#194f82"/></svg>