<svg xmlns="http://www.w3.org/2000/svg" width="256" height="256"><g data-name="Fill out line"><path d="M99.5 234.7l1.6 17H16.8l-1.6-17q-3.7-43.4-3.7-87 0-29.2 1.7-58.4l2.7-46.6 1-17.1H101l-1 17-2.7 46.7q-1.2 21.2-1.6 42.5v8.8V162a899 910.6 0 00.4 15.6q0 4.5.3 9l.4 9.2.4 9.3q.9 14.8 2.2 29.6z" fill="#68737f"/><path d="M101 25.6l-.9 17H15.9l1-17zm0 226.1H16.9l-1.6-17h84.3l1.6 17z" fill="#529ddf"/><path d="M240 251.7h-71.5V239l12.6-29.8h50.6z" fill="#68737f"/><path d="M249.8 136.8a12.1 12.3 0 01-14.6 4.6l-1-.4-11-4.5-4.2-34.1v-4.3l10.7 6.2 14.3 8.3a12.1 12.3 0 015.8 7.7l1.6 6.7a12.1 12.3 0 01-1.6 9.8z" fill="#fdc5ca"/><path d="M105.3 162.1v25.6H75.8a8.4 8.5 0 01-8.4-8.5v-17a8.4 8.5 0 018.4-8.6h8.4a4.2 4.3 0 014.3-4.3H98a4.2 4.3 0 014 3z" fill="#e04446"/><path d="M105.3 162.1h16.9v25.6h-16.9z" fill="#d6323f"/><path d="M230.3 135.1c0 3-.2 5.8-.4 8.7l-2.4 26.9V192h-42.2v-17l-4.9-6.7-5-6.8a17.5 17.7 0 01-2.3 1.8 18 18.2 0 00-6.7 8.3l-6.3 16.1-38-4.2v-17.1l21.1-4.3h8.4V158a16.2 16.5 0 011-16.5l3.2-4.9a10.5 10.6 0 01-2.7-10l1.2-5.1a10.5 10.6 0 015.5-7l-2.7-8-1.3-4h-8.4l4.2-12.8v-8.5l21.1-8.6 12.6 12.8 12.7 17.1 7.1-4.8a13.5 13.6 0 0120.3 7 95.2 96.4 0 014.9 30.5z" fill="#fdc5ca"/><path d="M134.8 72.5l4.1 6.4a9.5 9.6 0 0011.5 3.5l13.9-5.6 1 1.6a17.4 17.7 0 0020 7l-16.8-25.7z" fill="#ba8b5d"/><path d="M181.1 192h50.6v17H181z" fill="#d4e4f0"/><path d="M194.2 112.8a88.8 90 0 018.7 51.6l-.7 5.7 8.4 1 .7-5.6a97.2 98.5 0 00-9.6-56.5z"/><path d="M255.5 126l-1.6-6.8A16.4 16.6 0 00246 109L226 97.2a17.6 17.9 0 00-23.2-3.2l-3.9 2.6L188.8 83 172 57.4a4.2 4.3 0 00-5-1.7l-33.7 12.8a4.2 4.3 0 00-2 6.4l4.1 6.3a13.8 14 0 0012 6.2v1.5l-4 12.2a4.2 4.3 0 004 5.6h5.4l2 6a14.7 15 0 00-4.6 7.7l-1.2 5a14.8 15 0 001.7 11.3L149 139a20.5 20.8 0 00-2 18.9h-3.9a4.2 4.3 0 00-.8 0l-16.1 3.3a4.2 4.3 0 00-4.1-3.3h-13.9l-2.3-7a8.4 8.5 0 00-6-5.6c0-18.6.5-37.3 1.6-55.8l3.7-63.7a4.2 4.3 0 00-4.2-4.5H63V8.5h59V0H0v8.5h54.8v12.8h-38a4.2 4.3 0 00-4.2 4L9 89a988.6 1001.4 0 003.7 163.2 4.2 4.3 0 004.1 3.8h84.3a4.2 4.3 0 004.2-4.7 981.9 994.6 0 01-4.4-59.3h21.3a4.2 4.3 0 004.1-3.8l33.3 3.8a4.3 4.3 0 00.5 0 4.2 4.3 0 003.9-2.7l6.3-16a13.7 13.9 0 014.3-5.8l6.5 8.9v11.3a4.2 4.3 0 00-4.2 4.3v16.2l-12.3 29a4.2 4.3 0 00-.3 1.7v12.8h8.4v-11.9l11.2-26.5h44.3l7.8 39.3 8.2-1.7-8.3-42.3V192a4.2 4.3 0 00-4.2-4.3V171l2.2-25.4a16.2 16.4 0 005.7 1 16.3 16.5 0 0016-20.5zM96.6 29.9l-.5 8.5H20.3l.5-8.5zm-76 217.6l-.8-8.6h75.8l.8 8.6zM95 230.4H19a980.5 993.2 0 01-1.8-140.9L19.8 47h75.8L93.2 89a990.3 1003 0 00-1.6 41.5L56 119.6l-2.4 8.2 38 11.6-.1 5.7h-3a8.4 8.5 0 00-7.3 4.2h-5.4a12.6 12.8 0 00-2.4.3L47 145l-1.4 8.4 18.8 3.2a12.6 12.7 0 00-1.2 5.4v4.3h-21v8.5h21v4.3a12.6 12.8 0 003.8 9.2L45 196.5l2.9 8 34-12.5h10.7a991 1003.8 0 002.4 38.4zm6.2-47H75.8a4.2 4.3 0 01-4.2-4.2v-17a4.2 4.3 0 014.2-4.3H80v4.2a4.2 4.3 0 008.5 0v-8.5H98l3 9.2zm41.3-107l-1.2-1.8 25.6-9.7L178 82a13.2 13.4 0 01-9.2-5.9l-1-1.6a4.2 4.3 0 00-5.1-1.6l-14 5.7a5.3 5.4 0 01-6.3-2zm-24.5 107h-8.4v-17h8.4zm109.6 21.4h-42.2v-8.5h42.2zm-38-17v-12.9a4.2 4.3 0 00-.8-2.5l-7.9-10.7a22.1 22.4 0 004.5-13.6v-5.5l3-3a4.2 4.3 0 00-6-6l-3 3h-10.8v8.5h8.4v3a13.7 13.9 0 01-6.1 11.6 22 22.4 0 00-8.3 10.4l-5.2 13-31-3.5V170l17.3-3.5h8a4.2 4.3 0 004.2-4.3V158a4.2 4.3 0 00-.4-2 12 12.2 0 01.8-12.1l3.2-4.9a4.2 4.3 0 00-.6-5.4 6.3 6.4 0 01-1.6-6l1.2-5a6.3 6.4 0 014.6-4.7l10.7-2.7a4.2 4.3 0 002.8-2.3l4.2-8.5-7.6-3.8-3.3 6.8-7.3 1.8-2.7-8a4.2 4.3 0 00-4-3h-2.5l2.3-7.2a4.2 4.3 0 00.2-1.3v-4.8l7-2.8a21.7 22 0 0020.8 8.2l11 14.8a4.2 4.3 0 005.7 1l7.2-4.9a9.2 9.3 0 018-1 9.3 9.4 0 015.9 5.9 90.4 91.6 0 014.3 37.4l-2.4 26.9v17.4zm56.8-53.4a8 8 0 01-9.6 3l-2.2-1a98.4 99.7 0 00-3.1-26.2l10.5 6.1a8 8 0 013.8 5l1.6 6.7a8 8 0 01-1 6.4z"/><path d="M198.4 249.8l8.4-17 7.6 3.8-8.4 17zm-137.1-36l16.8-8.5 3.8 7.6-16.8 8.5z"/></g></svg>